<?xml version="1.0" encoding="UTF-8" standalone="no"?>
<!-- Created with Inkscape (http://www.inkscape.org/) -->

<svg
   xmlns:dc="http://purl.org/dc/elements/1.1/"
   xmlns:cc="http://creativecommons.org/ns#"
   xmlns:rdf="http://www.w3.org/1999/02/22-rdf-syntax-ns#"
   xmlns:svg="http://www.w3.org/2000/svg"
   xmlns="http://www.w3.org/2000/svg"
   xmlns:sodipodi="http://sodipodi.sourceforge.net/DTD/sodipodi-0.dtd"
   xmlns:inkscape="http://www.inkscape.org/namespaces/inkscape"
   width="50mm"
   height="50mm"
   viewBox="0 0 50 50"
   version="1.1"
   id="svg2715"
   inkscape:version="0.92.4 (5da689c313, 2019-01-14)"
   sodipodi:docname="circle-two-color.svg">
  <defs
     id="defs2709" />
  <sodipodi:namedview
     id="base"
     pagecolor="#ffffff"
     bordercolor="#666666"
     borderopacity="1.0"
     inkscape:pageopacity="0.0"
     inkscape:pageshadow="2"
     inkscape:zoom="1.23"
     inkscape:cx="210.1712"
     inkscape:cy="164.39177"
     inkscape:document-units="mm"
     inkscape:current-layer="layer1"
     showgrid="false"
     inkscape:window-width="1366"
     inkscape:window-height="703"
     inkscape:window-x="-4"
     inkscape:window-y="-4"
     inkscape:window-maximized="1"
     showguides="true"
     inkscape:guide-bbox="true">
    <sodipodi:guide
       position="139.82046,-3.4417344"
       orientation="0,1"
       id="guide4995"
       inkscape:locked="false" />
  </sodipodi:namedview>
  <metadata
     id="metadata2712">
    <rdf:RDF>
      <cc:Work
         rdf:about="">
        <dc:format>image/svg+xml</dc:format>
        <dc:type
           rdf:resource="http://purl.org/dc/dcmitype/StillImage" />
        <dc:title></dc:title>
      </cc:Work>
    </rdf:RDF>
  </metadata>
  <g
     inkscape:label="Layer 1"
     inkscape:groupmode="layer"
     id="layer1"
     transform="translate(0,-247)">
    <path
       style="opacity:1;fill:#ec5242;fill-opacity:1;stroke:none;stroke-width:0.78165114;stroke-linecap:butt;stroke-miterlimit:4;stroke-dasharray:none;stroke-opacity:1;paint-order:stroke fill markers"
       d="m 97.130859,189.10938 -8.732421,8.52148 2.734374,2.66992 11.199218,-10.93164 a 94.488189,94.488189 0 0 0 -5.201171,-0.25976 z m 36.121091,8.27734 -0.25195,0.24609 2.73438,2.66797 1.17578,-1.14844 a 94.488189,94.488189 0 0 0 -3.65821,-1.76562 z m -53.587888,8.91406 -13.673828,13.3418 2.734375,2.66992 13.673829,-13.34375 z m 43.794918,0.91211 -13.67382,13.3418 2.73437,2.66992 13.67383,-13.34375 z m -86.244136,1.19141 a 94.488189,94.488189 0 0 0 -13.951172,13.06836 l 0.859375,0.83984 13.671875,-13.34375 z m 122.554686,6.90039 -5.38086,5.25 2.73438,2.66992 5.41406,-5.28516 a 94.488189,94.488189 0 0 0 -2.76758,-2.63476 z m -101.494139,11.86719 -13.671875,13.34179 2.734375,2.66992 13.671875,-13.34375 z m 43.794919,0.9121 -13.671872,13.34375 2.734374,2.66797 13.671878,-13.34375 z m 44.60352,0 L 133,241.42773 l 2.73438,2.66797 13.67382,-13.34375 z m 31.97851,12.44336 -1.85546,1.8125 2.73437,2.66797 0.79102,-0.77148 a 94.488189,94.488189 0 0 0 -1.66993,-3.70899 z m -143.591793,9.56836 -13.671875,13.3418 2.734375,2.66992 13.671875,-13.34375 z m 44.603515,0 -13.673828,13.3418 2.734375,2.66992 13.673829,-13.34375 z m 43.794918,0.91211 -13.67382,13.34375 2.73437,2.66797 13.67383,-13.34375 z m 44.60157,0 -13.67188,13.34375 2.73438,2.66797 13.67383,-13.34375 z M 13.673828,270.9668 0.02929688,284.2832 a 94.488189,94.488189 0 0 0 0.0019531,0.0566 l 2.70312502,2.63868 13.673828,-13.34375 z m 44.601563,0 -13.671875,13.34375 2.734375,2.66797 13.671875,-13.34375 z m 43.794919,0.91211 -13.671872,13.34375 2.734374,2.66796 13.671878,-13.34179 z m 44.60352,0 L 133,285.22266 l 2.73438,2.66796 13.67382,-13.34179 z m 41.8164,2.84375 -11.69335,11.41211 2.73437,2.66796 9.3125,-9.08789 a 94.488189,94.488189 0 0 0 -0.35352,-4.99218 z m -153.429683,21.63867 -13.671875,13.34375 2.734375,2.66797 13.671875,-13.3418 z m 44.603515,0.002 -13.673828,13.3418 2.734375,2.66797 13.673829,-13.3418 z m 43.794918,0.91211 -13.67382,13.3418 2.73437,2.66992 13.67383,-13.34375 z m 44.60157,0 -13.67188,13.3418 2.73438,2.66992 13.67383,-13.34375 z m -154.388675,19.95899 -5.1933594,5.0664 a 94.488189,94.488189 0 0 0 1.6640624,3.7168 l 6.265625,-6.11524 z m 44.603516,0 -13.671875,13.34179 2.734375,2.66797 13.671875,-13.3418 z m 43.794919,0.9121 -13.671872,13.3418 2.734374,2.66992 13.671878,-13.34375 z m 44.60352,0 -13.67383,13.3418 2.73438,2.66992 13.67382,-13.34375 z m -111.613283,22.01172 -8.820313,8.60742 a 94.488189,94.488189 0 0 0 2.748047,2.6543 l 8.806641,-8.59375 z m 44.603515,0 -13.673828,13.3418 2.734375,2.66797 13.673829,-13.3418 z m 43.794918,0.91211 -13.67382,13.3418 2.73437,2.66992 13.67383,-13.34375 z m 44.60157,0 -13.67188,13.3418 1.10156,1.07617 a 94.488189,94.488189 0 0 0 13.2461,-13.75781 z M 58.275391,361.0293 51.59375,367.54883 a 94.488189,94.488189 0 0 0 3.660156,1.76758 l 5.75586,-5.61914 z m 43.794919,0.91211 -13.671872,13.34375 2.552734,2.49023 a 94.488189,94.488189 0 0 0 0.345703,0.0176 L 104.80469,364.6094 Z m 44.60352,0 -0.85547,0.83398 a 94.488189,94.488189 0 0 0 0.98828,-0.70508 z"
       transform="matrix(0.26458333,0,0,0.26458333,0,197)"
       id="rect3303"
       inkscape:connector-curvature="0" />
    <path
       style="opacity:1;fill:#272a21;fill-opacity:1;stroke:none;stroke-width:0.78165114;stroke-linecap:butt;stroke-miterlimit:4;stroke-dasharray:none;stroke-opacity:1;paint-order:stroke fill markers"
       d="m 112.77344,190.78516 10.68554,10.42773 2.73438,-2.66797 -6.08203,-5.93554 a 94.488189,94.488189 0 0 0 -7.33789,-1.82422 z m -37.183596,0.20312 a 94.488189,94.488189 0 0 0 -4.445313,0.99805 l 8.519531,8.31445 2.734376,-2.66992 z m -28.251953,16.22461 -2.734375,2.66797 13.671875,13.34375 2.734375,-2.66992 z m 43.794921,0.91211 -2.734374,2.66797 13.671872,13.34375 2.73438,-2.66797 z m 44.603518,0 -2.73633,2.66992 13.67383,13.3418 2.73437,-2.66797 z m -111.613283,19.95898 -2.734375,2.66797 13.671875,13.34375 2.734375,-2.66797 z m 44.601562,0 -2.734375,2.66797 13.673828,13.34375 2.734376,-2.66797 z m 43.794921,0.91211 -2.73437,2.66993 13.67382,13.34179 2.73438,-2.66797 z m 44.60352,0 -2.73438,2.66993 13.67188,13.34179 2.73633,-2.66797 z m -109.785159,22.01172 -2.734375,2.66797 13.671875,13.34375 2.734375,-2.66797 z m 43.794921,0.91211 -2.734374,2.66992 13.671872,13.3418 2.73438,-2.66797 z m 44.603518,0 -2.73633,2.66992 13.67383,13.3418 2.73437,-2.66797 z m 43.79492,0.91406 -2.73437,2.66797 10.41406,10.16211 a 94.488189,94.488189 0 0 0 -1.53321,-6.83203 z m -174.4804688,0.4336 a 94.488189,94.488189 0 0 0 -1.2910156,4.07812 l 9.9140624,9.67383 2.734375,-2.66797 z m 19.0722658,18.61133 -2.734375,2.66992 13.671875,13.34179 2.734375,-2.66796 z m 44.601562,0 -2.734375,2.66992 13.673828,13.34179 2.734376,-2.66796 z m 43.794921,0.91211 -2.73437,2.66992 13.67382,13.34179 2.73438,-2.66796 z m 44.60352,0.002 -2.73438,2.66797 13.67188,13.34179 2.73633,-2.66796 z M 2.734375,297.27539 1.2753906,298.69922 a 94.488189,94.488189 0 0 0 0.6054688,3.08008 l 11.7929686,11.50781 2.734375,-2.66992 z m 44.603516,0 -2.734375,2.66797 13.671875,13.34375 2.734375,-2.66992 z m 43.794921,0.91211 -2.734374,2.66797 13.671872,13.34375 2.73438,-2.66992 z m 44.601568,0 -2.73438,2.66797 13.67383,13.34375 2.73437,-2.66992 z m 43.79687,0.91211 -2.73437,2.66797 8.33789,8.13867 a 94.488189,94.488189 0 0 0 1.09179,-4.27344 z m -155.408203,19.04687 -2.734375,2.66797 13.671875,13.34375 2.734375,-2.66992 z m 44.601562,0 -2.734375,2.66797 13.673828,13.34375 2.734376,-2.66992 z m 43.794921,0.91211 -2.73437,2.66797 13.67382,13.34375 2.73438,-2.66797 z m 44.60352,0 -2.73438,2.66797 13.67188,13.34375 2.73633,-2.66797 z m -109.785159,22.01172 -2.734375,2.66797 13.671875,13.34375 2.734375,-2.66992 z m 43.794921,0.91211 -2.734374,2.66797 13.671872,13.34375 2.73438,-2.66797 z m 44.603518,0 -2.73633,2.66797 13.67383,13.34375 2.73437,-2.66797 z m -67.011721,19.95899 -2.734375,2.66797 12.111328,11.82031 a 94.488189,94.488189 0 0 0 2.705079,0.4082 l 1.591797,-1.55273 z m 43.794921,0.91211 -2.73437,2.66992 9.35351,9.12695 a 94.488189,94.488189 0 0 0 4.13086,-1.30664 z"
       transform="matrix(0.26458333,0,0,0.26458333,0,197)"
       id="rect3303-3"
       inkscape:connector-curvature="0" />
  </g>
</svg>
