<?xml version="1.0" encoding="UTF-8" standalone="no"?>
<!-- Created with Inkscape (http://www.inkscape.org/) -->

<svg
   xmlns:osb="http://www.openswatchbook.org/uri/2009/osb"
   xmlns:dc="http://purl.org/dc/elements/1.1/"
   xmlns:cc="http://creativecommons.org/ns#"
   xmlns:rdf="http://www.w3.org/1999/02/22-rdf-syntax-ns#"
   xmlns:svg="http://www.w3.org/2000/svg"
   xmlns="http://www.w3.org/2000/svg"
   xmlns:sodipodi="http://sodipodi.sourceforge.net/DTD/sodipodi-0.dtd"
   xmlns:inkscape="http://www.inkscape.org/namespaces/inkscape"
   width="200mm"
   height="200mm"
   viewBox="0 0 200 200"
   version="1.1"
   id="svg8"
   inkscape:version="0.92.4 (5da689c313, 2019-01-14)"
   sodipodi:docname="logo.svg">
  <defs
     id="defs2">
    <linearGradient
       id="linearGradient1323"
       osb:paint="solid">
      <stop
         style="stop-color:#ffffff;stop-opacity:1;"
         offset="0"
         id="stop1321" />
    </linearGradient>
    <inkscape:path-effect
       effect="powerstroke"
       id="path-effect948"
       is_visible="true"
       offset_points="0,0.13229166"
       sort_points="true"
       interpolator_type="CubicBezierJohan"
       interpolator_beta="0.2"
       start_linecap_type="zerowidth"
       linejoin_type="extrp_arc"
       miter_limit="4"
       end_linecap_type="zerowidth" />
    <inkscape:path-effect
       effect="powerstroke"
       id="path-effect944"
       is_visible="true"
       offset_points="0,0.13229166"
       sort_points="true"
       interpolator_type="CubicBezierJohan"
       interpolator_beta="0.2"
       start_linecap_type="zerowidth"
       linejoin_type="extrp_arc"
       miter_limit="4"
       end_linecap_type="zerowidth" />
    <inkscape:path-effect
       effect="powerstroke"
       id="path-effect936"
       is_visible="true"
       offset_points="0,0.13229166"
       sort_points="true"
       interpolator_type="CubicBezierJohan"
       interpolator_beta="0.2"
       start_linecap_type="zerowidth"
       linejoin_type="extrp_arc"
       miter_limit="4"
       end_linecap_type="zerowidth" />
    <inkscape:path-effect
       effect="powerstroke"
       id="path-effect926"
       is_visible="true"
       offset_points="0,0.13229166"
       sort_points="true"
       interpolator_type="CubicBezierJohan"
       interpolator_beta="0.2"
       start_linecap_type="zerowidth"
       linejoin_type="extrp_arc"
       miter_limit="4"
       end_linecap_type="zerowidth" />
  </defs>
  <sodipodi:namedview
     id="base"
     pagecolor="#ffffff"
     bordercolor="#666666"
     borderopacity="1.0"
     inkscape:pageopacity="0.0"
     inkscape:pageshadow="2"
     inkscape:zoom="0.70160437"
     inkscape:cx="555.07689"
     inkscape:cy="386.14584"
     inkscape:document-units="mm"
     inkscape:current-layer="layer5"
     showgrid="false"
     inkscape:window-width="1366"
     inkscape:window-height="703"
     inkscape:window-x="-4"
     inkscape:window-y="-4"
     inkscape:window-maximized="1"
     inkscape:snap-smooth-nodes="true"
     inkscape:object-nodes="true"
     inkscape:snap-intersection-paths="true"
     inkscape:object-paths="true"
     inkscape:snap-global="true"
     inkscape:snap-midpoints="true"
     inkscape:snap-object-midpoints="true"
     inkscape:snap-center="true"
     inkscape:snap-text-baseline="true"
     inkscape:snap-to-guides="true"
     inkscape:snap-grids="true"
     inkscape:snap-nodes="false"
     inkscape:snap-others="false" />
  <metadata
     id="metadata5">
    <rdf:RDF>
      <cc:Work
         rdf:about="">
        <dc:format>image/svg+xml</dc:format>
        <dc:type
           rdf:resource="http://purl.org/dc/dcmitype/StillImage" />
        <dc:title></dc:title>
      </cc:Work>
    </rdf:RDF>
  </metadata>
  <g
     inkscape:groupmode="layer"
     id="layer6"
     inkscape:label="Layer 6" />
  <g
     inkscape:groupmode="layer"
     id="layer5"
     inkscape:label="Layer 5"
     style="display:inline">
    <path
       id="path2775"
       style="opacity:1;fill:#ffffff;fill-opacity:1;stroke:none;stroke-width:1.47189021;stroke-linecap:round;stroke-linejoin:miter;stroke-miterlimit:4;stroke-dasharray:none;stroke-opacity:1;paint-order:stroke markers fill"
       d="M 199.26405,100 A 99.264053,99.264053 0 0 1 100,199.26405 99.264053,99.264053 0 0 1 0.73594666,100 99.264053,99.264053 0 0 1 100,0.73594666 99.264053,99.264053 0 0 1 199.26405,100 Z" />
  </g>
  <g
     inkscape:groupmode="layer"
     id="layer2"
     inkscape:label="Layer 2"
     style="display:inline" />
  <g
     inkscape:label="Layer 1"
     inkscape:groupmode="layer"
     id="layer1"
     transform="translate(0,-97)"
     style="display:inline" />
  <g
     inkscape:groupmode="layer"
     id="layer3"
     inkscape:label="Layer 3"
     style="display:inline">
    <path
       style="fill:none;stroke:#000000;stroke-width:3.71141577;stroke-linecap:butt;stroke-linejoin:miter;stroke-miterlimit:4;stroke-dasharray:none;stroke-opacity:1"
       d="m 184.17102,70.050673 3.99743,0.644746"
       id="path1197" />
    <path
       style="fill:none;stroke:#d3d3d3;stroke-width:3.71141577;stroke-linecap:butt;stroke-linejoin:miter;stroke-miterlimit:4;stroke-dasharray:none;stroke-opacity:1"
       d="m 153.71445,62.797959 27.36179,2.610543 c 5.02902,4.900069 5.28691,12.76597 2.19214,17.794989"
       id="path1195" />
    <path
       style="fill:none;stroke:#d3d3d3;stroke-width:3.71141577;stroke-linecap:butt;stroke-linejoin:miter;stroke-miterlimit:4;stroke-dasharray:none;stroke-opacity:1"
       d="m 195.10704,114.31346 6.61047,-0.0536"
       id="path1193" />
    <path
       style="fill:none;stroke:#d3d3d3;stroke-width:3.71141577;stroke-linecap:butt;stroke-linejoin:miter;stroke-miterlimit:4;stroke-dasharray:none;stroke-opacity:1"
       d="m 181.33653,113.64174 13.77051,0.67173 c 3.56241,6.17482 4.35288,11.46659 0.67173,18.47264"
       id="path1191" />
    <path
       style="fill:none;stroke:#d3d3d3;stroke-width:3.71141577;stroke-linecap:butt;stroke-linejoin:miter;stroke-miterlimit:4;stroke-dasharray:none;stroke-opacity:1"
       d="m 183.52628,139.42535 18.31078,-10.05804"
       id="path1189" />
    <path
       style="fill:none;stroke:#d4d3d3;stroke-width:3.71141577;stroke-linecap:butt;stroke-linejoin:miter;stroke-miterlimit:4;stroke-dasharray:none;stroke-opacity:1"
       d="m 144.75878,91.614337 7.37676,1.476784"
       id="path1187" />
    <path
       style="fill:none;stroke:#d4d3d3;stroke-width:3.71141577;stroke-linecap:butt;stroke-linejoin:miter;stroke-miterlimit:4;stroke-dasharray:none;stroke-opacity:1"
       d="m 104.12905,165.20573 c 5.72574,3.12313 10.6154,1.38744 10.6154,1.38744 l 48.87289,-12.76532 17.87145,-8.75336 c 0,0 1.18984,-1.98344 2.18834,-7.29447 0.99849,-5.31104 2.36647,-18.25309 -6.92975,-32.8251 l -62.07993,-0.34586"
       id="path1185" />
    <path
       style="fill:none;stroke:#d3d3d3;stroke-width:3.71141577;stroke-linecap:butt;stroke-linejoin:miter;stroke-miterlimit:4;stroke-dasharray:none;stroke-opacity:1"
       d="m 91.198679,110.28283 c 11.021381,-5.78623 23.134711,-6.31403 25.201201,-6.03849 2.0665,0.27553 35.73566,-11.153229 35.73566,-11.153229 l 39.05157,-13.210027"
       id="path1183" />
    <path
       style="fill:#ec5242;stroke:#272a21;stroke-width:3.71141577;stroke-linecap:butt;stroke-linejoin:miter;stroke-miterlimit:4;stroke-dasharray:none;stroke-opacity:1;fill-opacity:1"
       d="m 91.198679,110.28283 c -6.78095,2.25502 -7.628306,16.03126 -6.44746,26.04773 1.180846,10.01647 11.917949,34.7944 19.377831,28.87517 2.32069,-1.84141 3.71682,-6.47856 4.29851,-11.96581 0.49262,-4.64698 0.40113,-9.90364 -0.20756,-14.58828 -0.77545,-5.96801 -4.1394,-15.41368 -8.15476,-21.78791 -2.858344,-4.53752 -6.046784,-7.51862 -8.866561,-6.5809 z"
       id="path1181" />
    <path
       style="fill:none;stroke:#d4d3d3;stroke-width:3.71141577;stroke-linecap:butt;stroke-linejoin:miter;stroke-miterlimit:4;stroke-dasharray:none;stroke-opacity:1"
       d="m 182.64555,53.705326 8.54156,26.175758 10.47031,27.553426"
       id="path1179" />
    <path
       style="fill:none;stroke:#d3d3d3;stroke-width:3.71141577;stroke-linecap:butt;stroke-linejoin:miter;stroke-miterlimit:4;stroke-dasharray:none;stroke-opacity:1"
       d="m 142.15334,66.224496 11.56111,-3.426537 28.9311,-9.092633 -6.43097,-13.260918 5.0533,-1.893468 11.02137,-9.919235 5.99287,0.06888 -4.27078,10.676954 7.50831,3.030878"
       id="path1177" />
    <path
       style="fill:#ec5242;stroke:#272a21;stroke-width:3.71141577;stroke-linecap:butt;stroke-linejoin:miter;stroke-miterlimit:4;stroke-dasharray:none;stroke-opacity:1;fill-opacity:1"
       d="m 142.15334,66.224493 c -5.56969,0.200005 -7.3204,6.647553 -7.13098,11.968861 0.50339,6.841996 4.5948,14.370241 9.73642,13.42097 5.14161,-0.949271 5.95963,-6.534928 5.998,-12.004274 0.0383,-5.469346 -3.03375,-13.585561 -8.60344,-13.385557 z"
       id="path863" />
  </g>
  <g
     inkscape:groupmode="layer"
     id="layer4"
     inkscape:label="Layer 4">
    <g
       style="font-style:normal;font-weight:normal;font-size:40px;line-height:1.25;font-family:sans-serif;letter-spacing:0px;word-spacing:0px;fill:#000000;fill-opacity:1;stroke:#72c700;stroke-width:1;stroke-miterlimit:4;stroke-dasharray:none;stroke-opacity:1"
       id="flowRoot916" />
    <path
       style="fill:#ec5242;fill-opacity:1;stroke:#272a21;stroke-width:2.097;stroke-linecap:butt;stroke-linejoin:miter;stroke-miterlimit:4;stroke-dasharray:none;stroke-opacity:1"
       d="m 44.323189,112.43661 c 0,0 9.305171,-3.80891 15.112498,-2.68477 5.807335,1.12413 12.321454,3.88575 14.535796,10.38271 2.214347,6.49699 -1.906761,14.4115 -6.565217,20.48743 -4.658454,6.0759 -17.372589,15.06034 -17.372589,15.06034 l 26.475901,-0.15748 v 6.22963 l -34.262933,-1.55741 1.101254,-6.77484 c 0,0 19.914154,-16.7171 22.6899,-21.22699 2.775766,-4.50987 4.306882,-10.22348 -2.968169,-15.11792 -7.275035,-4.89439 -19.784714,4.18459 -19.784714,4.18459 z"
       id="path1128" />
    <path
       style="fill:#ec5242;fill-opacity:1;stroke:#272a21;stroke-width:1.08806491;stroke-linecap:butt;stroke-linejoin:miter;stroke-miterlimit:4;stroke-dasharray:none;stroke-opacity:1"
       d="m 63.590287,78.665367 0.190483,-9.714716 6.666963,0.190487 c 0,0 3.420786,1.066559 3.047754,4.762114 -0.373033,3.695557 -3.428724,4.666871 -3.428724,4.666871 z"
       id="path1126" />
    <path
       style="fill:#ec5242;fill-opacity:1;stroke:#272a21;stroke-width:1.08806491;stroke-linecap:butt;stroke-linejoin:miter;stroke-miterlimit:4;stroke-dasharray:none;stroke-opacity:1"
       d="m 60.161564,91.904051 0.09525,-25.715426 11.14335,-0.09524 c 0,0 6.010279,0.75866 5.793442,7.008481 -0.216839,6.249821 -5.22199,7.277865 -5.22199,7.277865 l 9.524234,11.619565 -4.285903,-0.09525 -8.57181,-10.571895 -4.952599,0.285725 -0.285727,10.190927 z"
       id="path1124" />
    <path
       style="fill:#ec5242;fill-opacity:1;stroke:#272a21;stroke-width:1.08806491;stroke-linecap:butt;stroke-linejoin:miter;stroke-miterlimit:4;stroke-dasharray:none;stroke-opacity:1"
       d="m 44.160854,92.189776 v -2.85727 h 3.23824 L 47.208608,68.569683 44.351337,68.379199 v -2.285817 l 9.524232,-0.190484 0.571454,2.85727 H 51.0183 l 0.190487,20.572338 3.047752,-0.380966 0.38097,3.238236 z"
       id="path1122" />
    <path
       style="fill:#ec5242;fill-opacity:1;stroke:#272a21;stroke-width:1.08806491;stroke-linecap:butt;stroke-linejoin:miter;stroke-miterlimit:4;stroke-dasharray:none;stroke-opacity:1"
       d="m 17.683491,91.618324 9.333748,-25.715426 h 5.333566 l 8.952778,25.143973 -4.190662,0.571453 -2.476297,-6.666963 -10.476656,-0.190484 -2.666784,7.04793 z"
       id="path1120" />
    <path
       style="fill:#ec5242;fill-opacity:1;stroke:#272a21;stroke-width:1.08806491;stroke-linecap:butt;stroke-linejoin:miter;stroke-miterlimit:4;stroke-dasharray:none;stroke-opacity:1"
       d="m 156.91544,66.224442 3.09793,-0.538773 5.65711,21.550876 5.38771,-21.012103 3.23262,0.134692 5.52242,21.416183 5.25303,-21.954955 3.50202,0.538772 -6.59995,25.322281 -3.50202,0.673462 -5.7918,-21.281489 -5.11834,20.742715 h -3.7714 z"
       id="path1112" />
    <path
       style="fill:#ec5242;fill-opacity:1;stroke:#272a21;stroke-width:1.08806491;stroke-linecap:butt;stroke-linejoin:miter;stroke-miterlimit:4;stroke-dasharray:none;stroke-opacity:1"
       d="m 109.1381,91.681413 -0.40407,-25.322279 3.90608,-0.808159 0.40409,11.044825 12.79584,-0.538774 -0.40409,-10.236664 3.36732,0.40408 0.26938,25.591661 -3.36731,0.269391 0.1347,-12.930527 h -13.33461 v 13.065218 z"
       id="path1110" />
    <path
       style="fill:#ec5242;fill-opacity:1;stroke:#272a21;stroke-width:1.08806491;stroke-linecap:butt;stroke-linejoin:miter;stroke-miterlimit:4;stroke-dasharray:none;stroke-opacity:1"
       d="m 83.546429,90.199789 0.134694,-4.310174 c 0,0 4.141849,2.546624 6.86934,2.963247 2.727493,0.416623 6.450937,0.715444 8.072008,-1.038096 1.621079,-1.753537 2.108639,-2.599626 0.8014,-5.157781 -1.30727,-2.558155 -9.903719,-2.479515 -12.361886,-3.764638 -2.458167,-1.285122 -3.449362,-4.43242 -2.88831,-7.359088 0.561051,-2.926667 3.714127,-4.874548 7.171409,-5.840821 3.457282,-0.966274 11.104586,1.632655 11.104586,1.632655 l 0.12114,4.168715 c 0,0 -8.109527,-4.866319 -12.408088,-2.401364 -4.298561,2.464955 -2.355522,6.902085 -0.371398,7.204092 1.984123,0.302005 7.777948,1.007463 9.802717,2.050275 2.024749,1.042811 4.153309,3.193641 4.005299,5.817709 -0.14801,2.624067 -0.10952,3.813018 -2.40814,5.765884 -2.298628,1.952869 -7.354452,2.228713 -10.371352,2.15509 -3.016902,-0.07362 -7.273424,-1.885705 -7.273424,-1.885705 z"
       id="path1012-1" />
    <path
       style="fill:#ec5242;fill-opacity:1;stroke:#272a21;stroke-width:2.09699988;stroke-linecap:butt;stroke-linejoin:miter;stroke-miterlimit:4;stroke-dasharray:none;stroke-opacity:1"
       d="m 22.813056,112.93174 1.704399,6.52541 c 1.24908,3.54944 8.416216,8.84134 8.375903,6.33064 -1.476852,-2.81057 -6.42609,-12.43987 -6.476715,-13.5865 z"
       id="path1218" />
  </g>
</svg>
