<?xml version="1.0" encoding="UTF-8" standalone="no"?>
<!-- Created with Inkscape (http://www.inkscape.org/) -->

<svg
   xmlns:dc="http://purl.org/dc/elements/1.1/"
   xmlns:cc="http://creativecommons.org/ns#"
   xmlns:rdf="http://www.w3.org/1999/02/22-rdf-syntax-ns#"
   xmlns:svg="http://www.w3.org/2000/svg"
   xmlns="http://www.w3.org/2000/svg"
   xmlns:sodipodi="http://sodipodi.sourceforge.net/DTD/sodipodi-0.dtd"
   xmlns:inkscape="http://www.inkscape.org/namespaces/inkscape"
   width="200mm"
   height="200mm"
   viewBox="0 0 200 200"
   version="1.1"
   id="svg8"
   inkscape:version="0.92.4 (5da689c313, 2019-01-14)"
   sodipodi:docname="white-black-circle.svg">
  <defs
     id="defs2" />
  <sodipodi:namedview
     id="base"
     pagecolor="#ffffff"
     bordercolor="#666666"
     borderopacity="1.0"
     inkscape:pageopacity="0.0"
     inkscape:pageshadow="2"
     inkscape:zoom="0.5"
     inkscape:cx="264.24977"
     inkscape:cy="319.69043"
     inkscape:document-units="mm"
     inkscape:current-layer="layer1"
     showgrid="false"
     inkscape:window-width="1366"
     inkscape:window-height="703"
     inkscape:window-x="-4"
     inkscape:window-y="-4"
     inkscape:window-maximized="1" />
  <metadata
     id="metadata5">
    <rdf:RDF>
      <cc:Work
         rdf:about="">
        <dc:format>image/svg+xml</dc:format>
        <dc:type
           rdf:resource="http://purl.org/dc/dcmitype/StillImage" />
        <dc:title></dc:title>
      </cc:Work>
    </rdf:RDF>
  </metadata>
  <g
     inkscape:label="Layer 1"
     inkscape:groupmode="layer"
     id="layer1"
     transform="translate(0,-97)">
    <path
       style="opacity:1;fill:#272a21;fill-opacity:1;stroke:#272a21;stroke-width:8.64350128;stroke-linecap:butt;stroke-miterlimit:4;stroke-dasharray:none;stroke-opacity:1;paint-order:stroke fill markers"
       d="M 193.29883 382.25 L 193.29883 410.32422 L 222.44922 410.32422 L 222.44922 385.22656 A 184.89679 184.89679 0 0 0 193.29883 382.25 z M 146.85938 387.12109 A 184.89679 184.89679 0 0 0 117.70703 396.50977 L 117.70703 411.42578 L 146.85938 411.42578 L 146.85938 387.12109 z M 268.88867 400.44727 L 268.88867 410.32422 L 286.84766 410.32422 A 184.89679 184.89679 0 0 0 268.88867 400.44727 z M 155.50195 418.9668 L 155.50195 448.11914 L 184.6543 448.11914 L 184.6543 418.9668 L 155.50195 418.9668 z M 231.09375 418.9668 L 231.09375 448.11914 L 260.24609 448.11914 L 260.24609 418.9668 L 231.09375 418.9668 z M 79.912109 420.07031 L 79.912109 449.2207 L 109.06445 449.2207 L 109.06445 420.07031 L 79.912109 420.07031 z M 306.68359 424.44336 L 306.68359 449.2207 L 331.37305 449.2207 A 184.89679 184.89679 0 0 0 306.68359 424.44336 z M 193.29883 456.76562 L 193.29883 485.91602 L 222.44922 485.91602 L 222.44922 456.76562 L 193.29883 456.76562 z M 268.88867 456.76562 L 268.88867 485.91602 L 298.04102 485.91602 L 298.04102 456.76562 L 268.88867 456.76562 z M 42.117188 457.86523 L 42.117188 487.01758 L 71.269531 487.01758 L 71.269531 457.86523 L 42.117188 457.86523 z M 117.70703 457.86523 L 117.70703 487.01758 L 146.85938 487.01758 L 146.85938 457.86523 L 117.70703 457.86523 z M 344.47852 466.91211 L 344.47852 487.01758 L 355.5293 487.01758 A 184.89679 184.89679 0 0 0 344.47852 466.91211 z M 155.50195 494.56055 L 155.50195 523.71289 L 184.6543 523.71289 L 184.6543 494.56055 L 155.50195 494.56055 z M 231.09375 494.56055 L 231.09375 523.71289 L 260.24609 523.71289 L 260.24609 494.56055 L 231.09375 494.56055 z M 18.408203 495.66016 A 184.89679 184.89679 0 0 0 9.140625 524.8125 L 33.472656 524.8125 L 33.472656 495.66016 L 18.408203 495.66016 z M 79.912109 495.66016 L 79.912109 524.8125 L 109.06445 524.8125 L 109.06445 495.66016 L 79.912109 495.66016 z M 306.68359 495.66016 L 306.68359 524.8125 L 335.83594 524.8125 L 335.83594 495.66016 L 306.68359 495.66016 z M 193.29883 532.35352 L 193.29883 561.50586 L 222.44922 561.50586 L 222.44922 532.35352 L 193.29883 532.35352 z M 268.88867 532.35352 L 268.88867 561.50586 L 298.04102 561.50586 L 298.04102 532.35352 L 268.88867 532.35352 z M 42.117188 533.45508 L 42.117188 562.60742 L 71.269531 562.60742 L 71.269531 533.45508 L 42.117188 533.45508 z M 117.70703 533.45508 L 117.70703 562.60742 L 146.85938 562.60742 L 146.85938 533.45508 L 117.70703 533.45508 z M 344.47852 533.45508 L 344.47852 562.60742 L 373.63086 562.60742 L 373.63086 560.08594 A 184.89679 184.89679 0 0 0 370.72461 533.45508 L 344.47852 533.45508 z M 155.50195 570.14844 L 155.50195 599.30078 L 184.6543 599.30078 L 184.6543 570.14844 L 155.50195 570.14844 z M 231.09375 570.14844 L 231.09375 599.30078 L 260.24609 599.30078 L 260.24609 570.14844 L 231.09375 570.14844 z M 4.3222656 571.25 L 4.3222656 573.77148 A 184.89679 184.89679 0 0 0 7.2285156 600.40234 L 33.472656 600.40234 L 33.472656 571.25 L 4.3222656 571.25 z M 79.912109 571.25 L 79.912109 600.40234 L 109.06445 600.40234 L 109.06445 571.25 L 79.912109 571.25 z M 306.68359 571.25 L 306.68359 600.40234 L 335.83594 600.40234 L 335.83594 571.25 L 306.68359 571.25 z M 193.29883 607.94531 L 193.29883 637.09766 L 222.44922 637.09766 L 222.44922 607.94531 L 193.29883 607.94531 z M 268.88867 607.94531 L 268.88867 637.09766 L 298.04102 637.09766 L 298.04102 607.94531 L 268.88867 607.94531 z M 42.117188 609.04688 L 42.117188 638.19727 L 71.269531 638.19727 L 71.269531 609.04688 L 42.117188 609.04688 z M 117.70703 609.04688 L 117.70703 638.19727 L 146.85938 638.19727 L 146.85938 609.04688 L 117.70703 609.04688 z M 344.47852 609.04688 L 344.47852 638.19727 L 359.54492 638.19727 A 184.89679 184.89679 0 0 0 368.8125 609.04688 L 344.47852 609.04688 z M 155.50195 645.74219 L 155.50195 674.89258 L 184.6543 674.89258 L 184.6543 645.74219 L 155.50195 645.74219 z M 231.09375 645.74219 L 231.09375 674.89258 L 260.24609 674.89258 L 260.24609 645.74219 L 231.09375 645.74219 z M 22.425781 646.8418 A 184.89679 184.89679 0 0 0 33.472656 666.94531 L 33.472656 646.8418 L 22.425781 646.8418 z M 79.912109 646.8418 L 79.912109 675.99414 L 109.06445 675.99414 L 109.06445 646.8418 L 79.912109 646.8418 z M 306.68359 646.8418 L 306.68359 675.99414 L 335.83594 675.99414 L 335.83594 646.8418 L 306.68359 646.8418 z M 193.29883 683.53516 L 193.29883 712.68555 L 222.44922 712.68555 L 222.44922 683.53516 L 193.29883 683.53516 z M 268.88867 683.53516 L 268.88867 712.68555 L 298.04102 712.68555 L 298.04102 683.53516 L 268.88867 683.53516 z M 46.578125 684.63672 A 184.89679 184.89679 0 0 0 71.269531 709.41406 L 71.269531 684.63672 L 46.578125 684.63672 z M 117.70703 684.63672 L 117.70703 713.78906 L 146.85938 713.78906 L 146.85938 684.63672 L 117.70703 684.63672 z M 155.50195 721.33008 L 155.50195 748.63281 A 184.89679 184.89679 0 0 0 167.72656 750.48047 L 184.6543 750.48047 L 184.6543 721.33008 L 155.50195 721.33008 z M 231.09375 721.33008 L 231.09375 746.73633 A 184.89679 184.89679 0 0 0 260.24609 737.34766 L 260.24609 721.33008 L 231.09375 721.33008 z M 89.306641 722.43164 A 184.89679 184.89679 0 0 0 109.06445 733.41016 L 109.06445 722.43164 L 89.306641 722.43164 z "
       transform="matrix(0.26458333,0,0,0.26458333,0,97)"
       id="rect815" />
  </g>
</svg>
